<svg version="1.1" xmlns="http://www.w3.org/2000/svg" viewBox="-307.2 -1607.2 5878.92740188592 2684.4"><desc>Created with Snap</desc><defs></defs><g><g transform="matrix(33.3468,0,0,33.3468,2094.6844,-1993.2458)"><path d="M60.733,32.344L49.179,20.789L37.624,32.344l11.555,11.556L60.733,32.344z M49.179,22.203l10.141,10.141L49.179,42.485  L39.038,32.344L49.179,22.203z M37.624,71.308l11.555,11.556l11.555-11.556L49.179,59.753L37.624,71.308z M49.179,81.449  L39.038,71.308l10.141-10.141l10.141,10.141L49.179,81.449z M40.679,71.308l8.5,8.501l8.501-8.501l-8.501-8.5L40.679,71.308z   M51.613,66.656l-2.435,2.434l-2.434-2.434l2.434-2.434L51.613,66.656z M49.179,78.395l-7.086-7.087l3.945-3.945l3.141,3.141  l3.142-3.141l3.945,3.945L49.179,78.395z M57.68,32.344l-8.501-8.5l-8.5,8.5l8.5,8.501L57.68,32.344z M46.755,37.006l2.424-2.424  l2.425,2.424l-2.425,2.425L46.755,37.006z M49.179,25.258l7.087,7.086l-3.955,3.955l-3.132-3.131l-3.131,3.131l-3.955-3.955  L49.179,25.258z M8.073,51.996l3.643-3.642l0.521,0.521l0.707-0.707l-1.228-1.228l-5.057,5.056l5.057,5.056L24.387,44.38  l-0.707-0.707L11.716,55.638L8.073,51.996z M33.839,48.509l-3.328,3.327l3.485,3.484l0.707-0.707l-2.778-2.777l2.621-2.62l2.78,2.78  l-7.318,7.317l-0.53-0.529l-0.707,0.707l1.237,1.236l8.732-8.731l-8.677-8.677L16.385,56.998l0.707,0.707l12.972-12.972  L33.839,48.509z M30.063,40.305L11.715,58.652l-6.657-6.656l6.657-6.657l3.318,3.317l0.707-0.707l-4.025-4.024l-8.071,8.071  l8.071,8.07l18.349-18.348l10.277,10.277L30.008,62.328l-6.944-6.944l-0.707,0.707l7.651,7.651l11.747-11.746L30.063,40.305z   M90.629,52.051l-3.643,3.642l-0.521-0.521l-0.707,0.707l1.228,1.228l5.057-5.056l-5.057-5.056L74.315,59.667l0.707,0.707  l11.964-11.965L90.629,52.051z M64.504,55.179l3.343-3.343l-3.128-3.128l3.975-3.975l0.531,0.529l0.707-0.707l-1.238-1.236  l-8.731,8.731l8.677,8.677l13.679-13.679l-0.707-0.707L68.639,59.313L64.504,55.179z M64.012,49.415l2.421,2.421l-2.636,2.636  l-2.421-2.421L64.012,49.415z M86.987,43.98L68.639,62.328L58.361,52.051l10.333-10.332l6.944,6.944l0.707-0.707l-7.651-7.651  L56.947,52.051l11.691,11.691l18.349-18.348l6.656,6.656l-6.656,6.657l-3.318-3.317l-0.707,0.707l4.025,4.024l8.07-8.071  L86.987,43.98z M66.418,38.022l-0.707-0.707L51.965,51.062l-2.006-2.006l13.744-13.744l-0.707-0.707L49.251,48.348L35.416,34.513  l-0.707,0.707l13.835,13.835l-2.007,2.007L32.705,37.229l-0.707,0.707l13.833,13.832L31.946,65.653l0.707,0.707l13.885-13.885  l2.006,2.006L34.671,68.355l0.707,0.707l13.873-13.873l13.791,13.79l0.707-0.707l-13.791-13.79l2.007-2.007L65.78,66.291  l0.707-0.707L52.672,51.769L66.418,38.022z M49.251,53.775l-2.006-2.006l2.007-2.007l2.006,2.006L49.251,53.775z" fill="#c7d3d4" style=""></path><desc>Created with Snap</desc><defs></defs></g><g><g transform="matrix(1,0,0,-1,0,0)"><path d="M233 725L309 720Q337 596 424 369Q511 143 539 31Q539 2 529 -13Q519 -27 504 -27Q491 -27 479 -17Q468 -6 464 13Q455 57 406 189Q200 215 147 221Q134 185 115 104Q96 23 85 -8Q70 -26 51 -26Q30 -26 15 -8Q0 11 0 38Q32 155 116 382Q200 609 233 725ZM268 624Q248 503 157 269L269 269Q345 269 396 264Q293 485 268 624ZM909 381L865 384Q844 440 794 440Q772 440 747 430Q723 420 707 409Q691 399 665 379Q665 365 664 288Q664 211 665 117Q667 23 669 16Q660 -14 634 -14Q616 -14 599 0Q583 15 579 36Q598 357 613 521L658 511L661 444Q731 502 781 502Q836 502 873 477Q911 452 911 404Q911 389 909 381ZM828 -187L828 -151Q864 -143 890 -121Q916 -98 929 -72Q943 -45 950 -4Q958 37 959 67Q961 98 961 143Q961 184 960 288Q959 393 958 479Q962 523 991 523Q1006 523 1019 508Q1033 493 1034 470Q1034 443 1034 385Q1035 328 1035 297Q1035 294 1035 275Q1036 256 1036 240Q1036 100 1026 12Q1016 -76 993 -121Q971 -165 943 -180Q915 -195 871 -195Q852 -195 828 -187ZM971 695Q998 695 1016 671Q1035 648 1035 618Q1035 596 1024 582Q1014 569 996 569Q968 569 952 592Q936 615 936 646Q936 668 945 681Q954 695 971 695ZM1414 502L1462 493L1462 483Q1462 415 1470 253Q1479 91 1486 3Q1466 -5 1448 -5Q1432 -5 1412 0L1404 26Q1340 -10 1282 -10Q1239 -10 1207 10Q1176 30 1159 59Q1142 89 1132 132Q1122 176 1119 211Q1117 247 1117 291Q1117 419 1133 526L1178 516Q1185 483 1185 444Q1185 422 1182 368Q1180 314 1180 286Q1180 237 1184 201Q1189 166 1201 132Q1214 99 1240 81Q1266 63 1305 63Q1349 63 1400 83Q1402 120 1404 272Q1406 425 1414 502ZM1635 400L1639 4Q1624 -4 1603 -4Q1587 -4 1567 1Q1570 64 1571 249Q1572 434 1579 523L1624 513L1627 457Q1680 513 1749 513Q1784 513 1805 508Q1826 503 1845 483Q1865 464 1875 432Q1885 400 1893 340Q1901 281 1904 201Q1908 122 1909 1Q1903 -1 1886 -1Q1850 -1 1830 8Q1826 24 1826 61Q1826 80 1827 132Q1829 185 1829 214Q1829 262 1825 298Q1822 334 1812 369Q1803 404 1783 423Q1764 442 1735 442Q1702 442 1683 437Q1665 432 1657 425Q1650 418 1635 400Z" fill="#603f83" style=""></path></g></g></g></svg>